<?xml version="1.0" encoding="UTF-8"?> <svg xmlns="http://www.w3.org/2000/svg" width="79" height="62" viewBox="0 0 79 62" fill="none"><path fill-rule="evenodd" clip-rule="evenodd" d="M69.7689 17.432L39.6788 4.10548C38.2765 3.48444 36.6772 3.48444 35.2749 4.10547L5.18475 17.432C3.52382 18.1676 3.4431 20.4946 5.04909 21.3436L34.9358 37.1415C36.5256 37.9819 38.4281 37.9819 40.0179 37.1415L69.9046 21.3436C71.5106 20.4946 71.4299 18.1676 69.7689 17.432ZM40.9999 1.12244C38.7563 0.128782 36.1974 0.128783 33.9538 1.12244L3.86361 14.449C-0.288741 16.288 -0.490513 22.1056 3.52445 24.2279L33.4111 40.0259C35.9549 41.3705 38.9988 41.3705 41.5426 40.0259L71.4293 24.2279C75.4442 22.1056 75.2424 16.288 71.0901 14.449L40.9999 1.12244Z" fill="white"></path><path fill-rule="evenodd" clip-rule="evenodd" d="M68.1718 25.6678L68.1718 35.432C68.1718 39.2612 66.0539 42.7762 62.6686 44.5657L42.3048 55.3298C39.2842 56.9266 35.6694 56.9266 32.6488 55.3298L12.2851 44.5657C8.89976 42.7762 6.78186 39.2611 6.78185 35.432L6.78183 25.6678L10.0443 25.6678L10.0443 35.432C10.0444 38.0519 11.4934 40.457 13.8097 41.6813L34.1734 52.4455C36.2402 53.538 38.7134 53.538 40.7802 52.4455L61.1439 41.6813C63.4602 40.457 64.9093 38.0519 64.9093 35.432L64.9093 25.6678L68.1718 25.6678Z" fill="white"></path><path fill-rule="evenodd" clip-rule="evenodd" d="M70.6456 47.9875V20.8H73.9081V47.9875H70.6456Z" fill="white"></path><path fill-rule="evenodd" clip-rule="evenodd" d="M74.4518 50.1625H70.1018C69.5012 50.1625 69.0143 50.6494 69.0143 51.25V57.775H75.5393V51.25C75.5393 50.6494 75.0525 50.1625 74.4518 50.1625ZM70.1018 46.9C67.6994 46.9 65.7518 48.8475 65.7518 51.25V58.8625C65.7518 60.0637 66.7256 61.0375 67.9268 61.0375H76.6268C77.8281 61.0375 78.8018 60.0637 78.8018 58.8625V51.25C78.8018 48.8475 76.8543 46.9 74.4518 46.9H70.1018Z" fill="white"></path><path fill-rule="evenodd" clip-rule="evenodd" d="M37.4768 20.8C38.6781 20.8 39.6518 19.8262 39.6518 18.625C39.6518 17.4238 38.6781 16.45 37.4768 16.45C36.2756 16.45 35.3018 17.4238 35.3018 18.625C35.3018 19.8262 36.2756 20.8 37.4768 20.8ZM37.4768 24.0625C40.4799 24.0625 42.9143 21.628 42.9143 18.625C42.9143 15.6219 40.4799 13.1875 37.4768 13.1875C34.4738 13.1875 32.0393 15.6219 32.0393 18.625C32.0393 21.628 34.4738 24.0625 37.4768 24.0625Z" fill="white"></path></svg> 