<?xml version="1.0" encoding="UTF-8"?> <svg xmlns="http://www.w3.org/2000/svg" width="67" height="63" viewBox="0 0 67 63" fill="none"><path fill-rule="evenodd" clip-rule="evenodd" d="M40.2181 18.4099L34.9633 3.94332C34.6283 3.02131 33.3244 3.02129 32.9894 3.94332L27.7346 18.4099C26.7105 21.2292 24.0759 23.1434 21.078 23.2462L5.69566 23.7734C4.71529 23.807 4.31232 25.0472 5.08572 25.6506L17.2204 35.1187C19.5853 36.9639 20.5916 40.0611 19.763 42.944L15.511 57.7364C15.24 58.6792 16.295 59.4456 17.1079 58.8966L29.8624 50.2816C32.3481 48.6026 35.6046 48.6026 38.0903 50.2816L50.8448 58.8966C51.6577 59.4456 52.7127 58.6792 52.4417 57.7364L48.1897 42.944C47.3611 40.0611 48.3674 36.9639 50.7323 35.1187L62.867 25.6506C63.6404 25.0472 63.2374 23.807 62.257 23.7734L46.8747 23.2462C43.8768 23.1434 41.2422 21.2292 40.2181 18.4099ZM37.924 2.86786C36.5843 -0.820216 31.3684 -0.820208 30.0287 2.86787L24.7739 17.3344C24.1887 18.9455 22.6832 20.0393 20.9701 20.098L5.58775 20.6253C1.66621 20.7597 0.0543994 25.7203 3.14799 28.1341L15.2827 37.6022C16.634 38.6566 17.2091 40.4264 16.7356 42.0738L12.4836 56.8662C11.3996 60.6373 15.6194 63.7032 18.871 61.5069L31.6255 52.8919C33.0459 51.9325 34.9068 51.9325 36.3272 52.8919L49.0817 61.5069C52.3333 63.7032 56.5531 60.6373 55.4691 56.8662L51.2171 42.0738C50.7436 40.4264 51.3187 38.6566 52.67 37.6022L64.8047 28.1341C67.8983 25.7203 66.2865 20.7597 62.3649 20.6253L46.9826 20.098C45.2695 20.0393 43.764 18.9455 43.1788 17.3344L37.924 2.86786Z" fill="white"></path><path fill-rule="evenodd" clip-rule="evenodd" d="M9.76267 5.58637C10.3777 4.9713 11.375 4.9713 11.9901 5.58637L20.3901 13.9864C21.0051 14.6014 21.0051 15.5987 20.3901 16.2138C19.775 16.8288 18.7777 16.8288 18.1627 16.2138L9.76267 7.81376C9.1476 7.19868 9.1476 6.20145 9.76267 5.58637Z" fill="white"></path><path fill-rule="evenodd" clip-rule="evenodd" d="M57.1401 5.58637C56.525 4.9713 55.5277 4.9713 54.9127 5.58637L46.5127 13.9864C45.8976 14.6014 45.8976 15.5987 46.5127 16.2138C47.1277 16.8288 48.125 16.8288 48.7401 16.2138L57.1401 7.81376C57.7551 7.19868 57.7551 6.20145 57.1401 5.58637Z" fill="white"></path><path fill-rule="evenodd" clip-rule="evenodd" d="M65.5401 51.9138C64.925 52.5288 63.9277 52.5288 63.3127 51.9138L54.9127 43.5138C54.2976 42.8987 54.2976 41.9014 54.9127 41.2864C55.5277 40.6713 56.525 40.6713 57.1401 41.2864L65.5401 49.6864C66.1551 50.3014 66.1551 51.2987 65.5401 51.9138Z" fill="white"></path><path fill-rule="evenodd" clip-rule="evenodd" d="M1.36267 51.9138C1.97775 52.5288 2.97498 52.5288 3.59006 51.9138L11.9901 43.5138C12.6051 42.8987 12.6051 41.9015 11.9901 41.2864C11.375 40.6713 10.3777 40.6713 9.76267 41.2864L1.36267 49.6864C0.747598 50.3014 0.747598 51.2987 1.36267 51.9138Z" fill="white"></path></svg> 