<?xml version="1.0" encoding="UTF-8"?> <svg xmlns="http://www.w3.org/2000/svg" width="95" height="94" viewBox="0 0 95 94" fill="none"><path fill-rule="evenodd" clip-rule="evenodd" d="M37.1021 35.7V42C37.1021 47.799 41.8032 52.5 47.6021 52.5001C53.4011 52.5001 58.1021 47.799 58.1021 42V35.7001L37.1021 35.7ZM47.6021 55.6501C55.1408 55.6501 61.2521 49.5387 61.2521 42V33.5544C61.2521 32.9997 60.8025 32.5501 60.2478 32.5501L34.9565 32.55C34.4018 32.55 33.9521 32.9997 33.9521 33.5544V42C33.9521 49.5387 40.0635 55.65 47.6021 55.6501Z" fill="white"></path><path fill-rule="evenodd" clip-rule="evenodd" d="M33.9521 42V37.8C32.7924 37.8 31.8521 38.7403 31.8521 39.9C31.8521 41.0598 32.7924 42 33.9521 42ZM28.7021 39.9C28.7021 42.7995 31.0527 45.15 33.9521 45.15H36.7369C36.9386 45.15 37.1021 44.9865 37.1021 44.7848V35.0153C37.1021 34.8136 36.9386 34.65 36.7369 34.65H33.9521C31.0527 34.65 28.7021 37.0006 28.7021 39.9Z" fill="white"></path><path fill-rule="evenodd" clip-rule="evenodd" d="M61.2521 37.8V42C62.4119 42 63.3521 41.0598 63.3521 39.9C63.3521 38.7403 62.4119 37.8 61.2521 37.8ZM66.5021 39.9C66.5021 37.0006 64.1516 34.65 61.2521 34.65H58.4674C58.2657 34.65 58.1021 34.8136 58.1021 35.0153V44.7848C58.1021 44.9865 58.2657 45.15 58.4674 45.15H61.2521C64.1516 45.15 66.5021 42.7995 66.5021 39.9Z" fill="white"></path><path fill-rule="evenodd" clip-rule="evenodd" d="M46.5521 67.2001V53.5501H49.7021V67.2001H46.5521Z" fill="white"></path><path fill-rule="evenodd" clip-rule="evenodd" d="M42.3521 65.6251C42.3521 64.7552 43.0573 64.0501 43.9271 64.0501H52.3271C53.197 64.0501 53.9021 64.7552 53.9021 65.6251C53.9021 66.4949 53.197 67.2001 52.3271 67.2001H43.9271C43.0573 67.2001 42.3521 66.4949 42.3521 65.6251Z" fill="white"></path><path fill-rule="evenodd" clip-rule="evenodd" d="M47.25 6.67985L45.4806 11.7905C43.8544 16.4876 37.7806 17.7709 34.373 14.1374L30.6653 10.1839L31.1401 15.5681C31.5764 20.5166 26.5528 24.1446 21.953 22.203L16.9483 20.0903L19.5851 24.8171C22.0086 29.1614 18.9038 34.5067 13.9072 34.5927L8.47066 34.6861L12.8137 37.9381C16.8052 40.927 16.1561 47.0655 11.6266 49.1642L6.69836 51.4476L11.9966 52.6625C16.866 53.7792 18.7849 59.6494 15.5057 63.3979L11.9378 67.4764L17.2751 66.4443C22.1805 65.4957 26.3355 70.0826 24.8736 74.8328L23.2831 80.0012L27.7366 76.9004C31.8297 74.0506 37.5024 76.5611 38.1106 81.4916L38.7724 86.8563L41.5721 82.223C44.1453 77.9646 50.3547 77.9646 52.9279 82.223L55.7276 86.8563L56.3894 81.4916C56.9976 76.5611 62.6703 74.0506 66.7634 76.9004L71.2169 80.0012L69.6264 74.8328C68.1645 70.0826 72.3195 65.4957 77.2249 66.4443L82.5622 67.4764L78.9943 63.3979C75.7151 59.6494 77.634 53.7792 82.5034 52.6625L87.8016 51.4476L82.8734 49.1642C78.3439 47.0655 77.6948 40.927 81.6863 37.9381L86.0293 34.6861L80.5928 34.5927C75.5962 34.5067 72.4914 29.1614 74.9149 24.8171L77.5517 20.0903L72.547 22.203C67.9472 24.1446 62.9236 20.5166 63.3599 15.5681L63.8347 10.1839L60.127 14.1374C56.7194 17.7709 50.6457 16.4876 49.0194 11.7905L47.25 6.67985ZM49.7552 1.77651C48.9351 -0.592171 45.5649 -0.592171 44.7449 1.77651L41.7229 10.505C41.0724 12.3838 38.6429 12.8972 37.2798 11.4438L30.9475 4.69169C29.2291 2.85935 26.1503 4.2219 26.3704 6.71737L27.1812 15.913C27.3557 17.8924 25.3463 19.3436 23.5064 18.567L14.9587 14.9588C12.6391 13.9797 10.384 16.4692 11.6062 18.6599L16.1096 26.7328C17.079 28.4705 15.8371 30.6086 13.8385 30.643L4.55339 30.8026C2.03365 30.8459 0.992227 34.0319 3.00512 35.5392L10.4225 41.0933C12.0191 42.2889 11.7595 44.7443 9.94772 45.5837L1.53068 49.4836C-0.753483 50.5419 -0.401209 53.8735 2.0544 54.4366L11.1032 56.5117C13.051 56.9584 13.8185 59.3065 12.5069 60.8058L6.41326 67.7716C4.75962 69.6619 6.44468 72.563 8.91842 72.0847L18.034 70.3219C19.9962 69.9424 21.6581 71.7772 21.0734 73.6773L18.3569 82.5044C17.6197 84.8999 20.3462 86.8689 22.4103 85.4318L30.0165 80.1359C31.6538 78.996 33.9228 80.0002 34.1661 81.9724L35.2964 91.1347C35.6031 93.6211 38.8996 94.3176 40.1972 92.1702L44.9788 84.257C46.0081 82.5536 48.4919 82.5536 49.5212 84.257L54.3028 92.1702C55.6004 94.3176 58.8969 93.6211 59.2036 91.1347L60.3339 81.9724C60.5772 80.0002 62.8462 78.996 64.4835 80.1359L72.0897 85.4318C74.1538 86.8689 76.8803 84.8999 76.1431 82.5044L73.4266 73.6773C72.8419 71.7772 74.5038 69.9424 76.466 70.3219L85.5816 72.0847C88.0553 72.563 89.7404 69.6619 88.0867 67.7716L81.9931 60.8059C80.6815 59.3065 81.449 56.9584 83.3968 56.5117L92.4456 54.4366C94.9012 53.8735 95.2535 50.5419 92.9693 49.4836L84.5523 45.5837C82.7405 44.7443 82.4809 42.2889 84.0775 41.0933L91.4949 35.5392C93.5078 34.0319 92.4663 30.8459 89.9466 30.8026L80.6615 30.643C78.6629 30.6086 77.421 28.4705 78.3904 26.7328L82.8938 18.6599C84.116 16.4692 81.8609 13.9797 79.5413 14.9588L70.9936 18.567C69.1537 19.3436 67.1443 17.8924 67.3188 15.913L68.1296 6.71737C68.3497 4.2219 65.2709 2.85935 63.5525 4.69168L57.2202 11.4438C55.8571 12.8972 53.4276 12.3838 52.7771 10.505L49.7552 1.77651Z" fill="white"></path></svg> 