<?xml version="1.0" encoding="UTF-8"?> <svg xmlns="http://www.w3.org/2000/svg" width="82" height="70" viewBox="0 0 82 70" fill="none"><path fill-rule="evenodd" clip-rule="evenodd" d="M41.8776 1.29216C44.1653 0.588233 46.6547 1.13424 48.4378 2.73107L79.6548 30.6866C81.1005 31.9813 81.9267 33.8302 81.9267 35.7709V51.6445C81.9267 54.6113 80.01 57.2383 77.1848 58.1439L42.9324 69.1222C40.4977 69.9025 37.8311 69.2567 36.0233 67.4489L2.57604 34.0017C-0.215882 31.2097 0.319172 26.8039 3.1548 24.6054L2.65336 24.104C0.253275 21.7039 -0.0774074 17.9271 1.86905 15.1465C2.7618 13.8711 4.05449 12.93 5.54241 12.4722L41.8776 1.29216ZM5.80168 25.0249L6.2075 26.5467C3.88223 27.1668 3.10176 30.0726 4.80343 31.7743L38.2506 65.2215C39.2241 66.1949 40.66 66.5427 41.971 66.1225L76.2234 55.1442C77.7447 54.6566 78.7767 53.242 78.7767 51.6445V35.7709C78.7767 34.7259 78.3318 33.7303 77.5534 33.0332L46.3364 5.07766C45.3762 4.21783 44.0358 3.92383 42.8039 4.30287L6.46879 15.4829C5.65091 15.7346 4.94036 16.2519 4.44963 16.9529C3.37971 18.4813 3.56148 20.5573 4.88074 21.8766L6.91538 23.9112L5.80168 25.0249Z" fill="white"></path><path fill-rule="evenodd" clip-rule="evenodd" d="M78.2517 36.1196L38.6718 49.0165C36.772 49.6355 35.7827 51.7236 36.5069 53.5858C37.1775 55.3102 39.0805 56.2082 40.8379 55.6295L78.2517 43.3104V36.1196ZM77.9634 32.9006C79.6599 32.3478 81.4017 33.6121 81.4017 35.3964V43.6902C81.4017 44.8236 80.6742 45.8291 79.5976 46.1835L41.8231 58.6215C38.4746 59.7241 34.8488 58.0131 33.5711 54.7275C32.1913 51.1794 34.0763 47.2009 37.6959 46.0215L77.9634 32.9006Z" fill="white"></path><path fill-rule="evenodd" clip-rule="evenodd" d="M78.2517 46.627L40.7547 58.979C38.8613 59.6027 37.878 61.6866 38.6006 63.5445C39.2729 65.2734 41.1835 66.1708 42.9434 65.5841L77.8927 53.9344C78.1071 53.8629 78.2517 53.6623 78.2517 53.4363V46.627ZM77.9554 43.4081C79.6534 42.8487 81.4017 44.1135 81.4017 45.9013V53.4363C81.4017 55.0182 80.3895 56.4225 78.8888 56.9227L43.9395 68.5725C40.5863 69.6902 36.9459 67.9805 35.6648 64.6862C34.2881 61.1461 36.1615 57.1755 39.7691 55.9871L77.9554 43.4081Z" fill="white"></path><path fill-rule="evenodd" clip-rule="evenodd" d="M39.8541 47.6547L7.30414 14.5797L9.54927 12.3702L42.0993 45.4452L39.8541 47.6547Z" fill="white"></path><path fill-rule="evenodd" clip-rule="evenodd" d="M35.6541 57.6297L3.10414 24.5547L5.34927 22.3452L37.8993 55.4202L35.6541 57.6297Z" fill="white"></path></svg> 